<?xml version="1.0" encoding="UTF-8"?><svg xmlns="http://www.w3.org/2000/svg" viewBox="0 0 192 192"><defs><style>.cls-1{fill:#262628;stroke:#231f20;stroke-miterlimit:10;}.cls-2,.cls-3{fill:#fff;stroke-width:0px;}.cls-3{opacity:.99;}</style></defs><g id="Layer_3"><rect class="cls-1" x="-25.5185" y="-21.0741" width="238.8889" height="238.8889"/></g><g id="Layer_4"><path class="cls-2" d="M28.1824,79.4854v-13.2105c0-5.4716,2.1688-10.4258,5.6808-14.0038,3.501-3.5891,8.3451-5.813,13.6956-5.813v-.0004h39.0286v-19.8168h-39.0286v.0004c-2.6202,0-18.6388-.2972-29.0647,10.1286-9.5555,9.5555-9.6882,27.1581-9.6882,29.5046v19.8164h19.3765v-6.6055Z"/><path class="cls-2" d="M47.5589,145.5417v-.0006c-5.3505,0-10.1947-2.2239-13.6956-5.813-3.5117-3.5777-5.6804-8.5314-5.6807-14.0025,0-5.4716,2.1688-10.4258,5.6808-14.0038,3.501-3.5891,8.345-5.813,13.6956-5.813v-.0009h30.2263v-19.8164h-30.2263v.0004c-2.6205,0-18.6388-.2971-29.0646,10.1286-9.5546,9.5545-9.6882,27.1543-9.6882,29.5037h0c0,2.345.1321,19.9489,9.6883,29.505,10.4259,10.4258,26.4445,10.1286,29.0647,10.1286v.0002h39.904v-19.8164h-39.904Z"/><path class="cls-3" d="M183.194,108.2013v-46.5864c0-2.3462-.1326-19.949-9.6882-29.5047-10.4258-10.4257-26.4442-10.1286-29.0647-10.1286h0s-6.1416-.0001-6.1416-.0001v-.0002c-.2022,0-.4928-.0013-.8457.0002h-2.1256l-.0601.0536c-5.7747.2571-17.6909,1.7326-26.0332,10.0749-9.5557,9.5556-9.6882,27.1584-9.6882,29.5046v22.3088s0,24.2776,0,24.2776v22.1834c0,2.345.1321,19.9489,9.6882,29.5051,8.3467,8.3466,20.2711,9.8194,26.0425,10.0753l.0512.0543h9.1127v-.0006c2.6205,0,18.6388.2971,29.0646-10.1286,9.5561-9.5561,9.6883-27.1601,9.6883-29.5051v-22.1834ZM138.2996,150.2019v-.0006h-.0183c-5.3434-.0051-10.1804-2.2213-13.6774-5.8091-3.5117-3.5802-5.6804-8.5339-5.6807-14.0055v-.0023h0V61.6149h0v-.0023c.0004-5.4715,2.1691-10.4253,5.6807-14.0055,3.4962-3.5868,8.332-5.8026,13.6738-5.8088h6.1634s.0183.0001.0183.0001c5.3434.0051,10.1805,2.2213,13.6774,5.809,3.5117,3.5803,5.6804,8.534,5.6807,14.0055v.0023h0v22.3084s0,24.2776,0,24.2776v22.1834h0v.0023c-.0004,5.4716-2.1691,10.4253-5.6807,14.0055-3.497,3.5877-8.3341,5.8039-13.6774,5.809h-.0183v.0004h-6.1415Z"/></g></svg>