<?xml version="1.0" encoding="UTF-8"?><svg id="Layer_12" xmlns="http://www.w3.org/2000/svg" viewBox="0 0 2000 2000"><rect x="-129.3765" y="-85.5863" width="2226.0109" height="2140.3951" style="fill:#f0fff6; stroke-width:0px;"/><path d="M1036.1751,349.8966c-19.0204,1.2567-38.1101,1.7807-57.0201,3.9426-33.0679,3.7806-56.3487,19.2482-66.9828,54.1636-17.8719,58.6809-56.8251,96.0913-116.3645,108.9164-35.1497,7.5715-68.8776,1.5981-100.7445-15.2514-8.699-4.5995-17.3209-9.3514-25.9874-14.0151-9.9039-5.3297-19.9515-5.7255-29.7592-.0696-7.0179,4.047-14.0783,8.2034-20.4539,13.1975-70.3002,55.0683-130.4557,120.1118-179.0925,195.6285-43.712,67.87-77.2549,140.9577-98.2393,219.5568-7.1236,26.6824-11.6534,54.0776-18.3144,80.902-3.006,12.1054,1.2208,20.9676,8.9566,28.5267,7.4721,7.3011,15.9547,13.5461,24.1484,20.0515,53.0493,42.1175,73.2267,113.1826,49.9319,176.0991-29.8192,80.5384-117.3158,121.5787-195.7582,89.8782-105.5942-42.6727-127.4788-175.8451-53.8802-250.534,12.7891-12.9785,26.2274-24.8089,42.9998-32.291,5.231-2.3336,9.7188-6.3481,14.7199-9.286,14.6424-8.6023,21.89-21.8305,24.5842-38.5348,11.9917-74.3477,34.5028-145.4989,64.7264-214.027,18.975-43.0234,42.2328-83.7447,67.8051-123.1447,43.7192-67.3591,96.1505-126.7429,155.8352-179.5046,19.1914-16.9653,39.911-32.1154,59.6294-48.4756,17.2362-14.3005,27.7598-32.0276,29.1216-55.6699,3.6079-62.6397,33.3864-108.9257,89.2156-134.6006,55.9334-25.7227,109.462-16.9016,157.7238,21.552,25.1229,20.0169,52.6088,27.1089,84.1004,22.8253,90.0529-12.2483,179.7012-9.4534,268.6286,10.2098,105.1712,23.2549,201.5668,67.0143,289.8142,129.7761,10.4097,7.4034,21.2856,14.1656,32.2204,20.7487,25.2906,15.2258,52.6209,15.8258,80.4822,10.5638,83.1486-15.7043,169.7623,46.6794,176.0608,144.0819,1.7462,27.004-5.2691,52.5426-15.2995,77.3328-3.0732,7.5955-5.7629,15.3985-8.0003,23.292-6.3587,22.4334-3.5231,44.2612,4.8342,65.632,19.3143,49.389,33.8927,100.1337,43.4619,152.4762,10.1204,55.3578,12.7648,111.0854,10.7362,167.2034-2.4913,68.9181-15.044,136.1742-38.4298,200.5272-12.8849,35.4561-9.2404,66.02,7.2588,98.0712,18.7583,36.4395,22.2066,75.0601,11.1817,115.0257-19.5411,70.8355-90.5442,120.0656-161.8293,109.5438-40.859-6.0309-74.8197,4.0467-108.1699,29.2808-68.1823,51.5894-143.6069,89.1707-226.0678,111.8077-77.8238,21.3637-156.643,28.8337-236.6223,20.3038-31.4651-3.3559-62.534-10.6155-93.7666-16.1958-14.7575-2.637-29.4189-5.8836-44.2236-8.1841-23.4078-3.6372-42.5957,7.5982-61.3794,19.4379-39.9793,25.1996-82.5075,32.4527-127.8539,18.9181-63.132-18.8433-107.2149-79.7079-107.1727-146.9452.0126-20.0005.6618-40.188-1.6609-59.9615-4.1987-35.7457-22.0027-66.2576-39.0564-96.9728-27.5988-49.7073-55.2674-99.4414-71.5014-154.6491-20.8975-71.0669-32.6504-143.2866-26.3041-217.7904,2.0499-24.0651,3.2539-48.2346,6.2062-72.1815,2.8761-23.3293-2.0454-44.1594-13.5735-64.2194-10.7794-18.757-21.3571-37.6457-26.5854-59.2023-18.4472-76.0606,20.4365-152.5828,89.2825-180.69,19.0532-7.7787,38.7584-10.749,58.9911-12.0811,14.9228-.9826,30.3824-.718,44.5181-4.8648,14.0376-4.118,28.671-10.7254,39.6414-20.3035,38.0285-33.2022,80.0562-59.3157,124.5917-82.2178,66.7652-34.3335,137.6789-49.205,211.6965-53.3799,40.6202-2.2912,79.2791-12.6869,114.5169-35.4087,46.8762-30.226,96.9067-37.2099,148.3943-13.1244,49.831,23.3104,78.9378,63.6034,87.7903,118.9075,2.4125,15.0736,3.6969,30.3588,6.6289,45.316,2.9993,15.3016,10.8857,28.2823,21.3588,39.6891,51.1836,55.7446,91.3077,118.599,114.7003,191.5223,13.8745,43.2511,20.6811,87.916,21.9335,133.632,1.4553,53.1114-6.1173,104.6193-22.6653,154.7546-19.6033,59.3928-49.9583,112.4892-91.4955,158.8022-17.5338,19.5499-36.2485,38.2044-51.9103,59.2214-10.224,13.7195-18.3992,30.2052-23.2035,46.7505-17.2852,59.5243-76.5496,112.4962-149.0206,109.888-42.5978-1.5334-78.4872-17.8643-106.8874-50.3196-17.4245-19.9121-37.4873-34.5115-63.8906-38.9344-6.1887-1.037-12.0828-3.8962-18.1176-5.9014-72.2437-24.0076-131.9408-66.2248-179.1152-127.237-36.2851-46.9285-59.3141-99.9929-67.1754-158.7412-11.6895-87.3565,7.785-167.3236,60.9277-238.0686,30.258-40.2801,67.9528-70.9484,113.4629-90.3562,106.5348-45.4318,226.3803-15.9337,293.92,83.7866,53.9264,79.621,42.598,183.1468-27.5822,243.0823-28.5308,24.3661-61.2966,36.8157-99.2902,32.2384-52.7972-6.3608-84.7701-50.0005-89.2286-89.9212-4.2765-38.2877,15.3866-68.2146,54.2347-74.9311,15.3285-2.6499,28.5967,1.0891,39.9473,11.7804,6.364,5.9943,12.2802,12.4894,18.717,18.3966,13.9044,12.7599,28.4749,10.2397,38.9655-5.4921,14.6061-21.9034,13.7676-44.802,3.4556-67.2728-18.7344-40.8235-50.4262-67.5402-92.9097-78.6054-62.9295-16.3906-118.0667,1.6175-163.9526,46.8874-59.0539,58.2616-78.9892,129.8843-62.1889,211.6281,14.6465,71.2645,54.7164,124.8801,113.6139,164.6575,14.9053,10.0669,29.908,19.3315,47.7484,23.7821,19.6577,4.9033,33.9795-1.1585,44.6024-17.8206,6.913-10.8434,12.804-22.3817,19.9478-33.054,40.9497-61.1755,114.8356-83.9818,181.9848-56.1822,13.3672,5.5338,26.2373,12.3071,39.5079,18.0995,30.8184,13.4524,57.4354,7.1085,78.7379-19.4597,17.2676-21.5358,30.5586-45.7034,41.7987-71.0048,34.1918-76.968,40.1129-156.805,21.0465-238.4683-13.4295-57.5204-39.8831-108.7293-76.0238-155.0366-21.6735-27.7704-46.8976-31.334-76.8064-16.6617-70.5676,34.6177-163.6723,9.9774-203.8709-77.3133-4.8499-10.5318-9.9616-21.3501-17.0349-30.3235-19.843-25.1731-46.0782-36.3183-77.827-32.8802-41.5476,4.4992-82.0886,13.7383-120.2808,31.1214-40.0839,18.2443-79.1876,38.3454-111.3036,70.2492-18.3387,18.2171-25.455,38.4901-17.9409,63.8453,3.0036,10.1355,5.5724,20.4556,7.5554,30.8477,12.8758,67.4704-19.0669,134.9416-78.7696,166.0049-16.9064,8.7965-33.9407,17.5854-51.6095,24.5423-22.519,8.867-32.053,27.59-38.7096,48.7233-7.1536,22.7107-7.9114,46.3019-7.2303,69.9888,1.9002,66.0849,15.1165,129.6893,40.7749,190.3853,16.7497,39.6222,37.3966,77.101,63.4296,111.2512,5.6448,7.4049,12.1193,14.1902,18.5548,20.9187,10.5712,11.0522,23.7143,13.0792,38.1512,11.1156,15.4003-2.0947,30.8786-4.9548,46.3336-5.0261,61.1029-.2815,115.6296,38.654,138.6192,96.7951,6.4326,16.268,13.3947,32.8553,23.2113,47.0649,14.9004,21.5693,36.2112,37.27,61.0955,43.5542,28.9966,7.3228,58.9436,12.0367,88.744,14.4286,49.7173,3.9905,99.3061-.2826,148.2264-10.3692,78.5179-16.1893,150.6193-48.1019,216.0992-95.0585,12.0288-8.6259,22.5892-20.1012,31.8363-31.8899,13.7049-17.4716,15.9439-38.4436,12.7007-60.2021-9.9788-66.9504,11.5039-120.6397,65.5943-160.0932,19.128-13.9517,40.9768-22.0134,64.2908-24.1354,36.4102-3.3141,58.0509-24.829,68.6086-58.2467,32.1545-101.7788,38.2909-205.4485,19.8447-310.7953-6.2183-35.5128-15.3027-70.1618-27.1789-103.995-10.1035-28.7825-28.6862-50.7643-56.5727-63.0875-7.7043-3.4045-16.5181-4.5386-24.9537-5.8082-34.7794-5.235-65.4215-19.143-90.0817-45.0748-36.3126-38.1849-50.8495-84.279-40.9861-136.2227,6.3187-33.2763-2.6753-57.162-29.0168-76.5397-54.1926-39.8653-112.1969-72.0931-175.0013-95.5325-82.3412-30.7303-167.2945-44.6008-254.7915-43.2928Z" style="fill:#3b1849; stroke-width:0px;"/></svg>